<svg xmlns="http://www.w3.org/2000/svg">
  <symbol id="logo-blue" viewBox="0 0 124 168" fill="none">
    <mask id="mask0_115_370" style="mask-type:alpha" maskUnits="userSpaceOnUse" x="0" y="0" width="124" height="168">
      <rect y="59.2941" width="124" height="108.706" fill="#D9D9D9"/>
      <ellipse cx="62" cy="62.2588" rx="62" ry="62.2588" fill="#D9D9D9"/>
    </mask>
    <g mask="url(#mask0_115_370)">
      <path d="M11 132.524L18 102.524L60.5 119.024L27 140.024L11 132.524Z" stroke="black"/>
      <rect y="57.0235" width="125" height="112" fill="#B3D0EE"/>
      <ellipse cx="62.5" cy="59.5235" rx="62.5" ry="61.5" fill="#B3D0EE"/>
      <mask id="mask1_115_370" style="mask-type:alpha" maskUnits="userSpaceOnUse" x="0" y="-2" width="125" height="172">
        <rect y="57.0235" width="125" height="112" fill="#B3D0EE"/>
        <ellipse cx="62.5" cy="59.5235" rx="62.5" ry="61.5" fill="#B3D0EE"/>
      </mask>
      <g mask="url(#mask1_115_370)">
        <path d="M17.2121 102.024L10 133.744L25.9697 141.024L61 118.664L17.2121 102.024Z" fill="#8AAEE0"/>
        <path d="M109.081 100.024L117 134.997L99.4646 143.024L61 118.37L109.081 100.024Z" fill="#8AAEE0"/>
        <circle cx="63" cy="-6.97647" r="23.5" fill="#D2E2EF" stroke="white" stroke-width="3"/>
      </g>
      <line x1="63.5" y1="18.0235" x2="63.5" y2="169.024" stroke="white" stroke-width="3"/>
      <line y1="86.5235" x2="124" y2="86.5235" stroke="white" stroke-width="3"/>
      <path d="M41.726 16.0235L25 28.4089L62 70.0235V36.3355L41.726 16.0235Z" fill="#5E92C2"/>
      <path d="M24 28.0296L64 72.0235" stroke="white" stroke-width="3"/>
      <path d="M46.3243 11.0235L42 14.215L62 36.0235V16.8746C55.2055 16.0429 51.7635 14.7825 46.3243 11.0235Z" fill="#8AAEE0"/>
      <line x1="46.9158" y1="10.2115" x2="-1.08424" y2="47.2115" stroke="white" stroke-width="3"/>
      <path d="M41.1077 15.0121L63.5 39.5235" stroke="white" stroke-width="3"/>
      <path d="M84.6731 16.1197L101.629 28.6752L64.1206 70.8618V36.7108L84.6731 16.1197Z" fill="#5E92C2"/>
      <path d="M102.643 28.2908L63 71.5235" stroke="white" stroke-width="3"/>
      <path d="M80.0116 11.051L84.3954 14.2864L64.1206 36.3946V16.9825C71.0084 16.1394 74.4977 14.8616 80.0116 11.051Z" fill="#8AAEE0"/>
      <line y1="-1.5" x2="61.4381" y2="-1.5" transform="matrix(0.79201 0.610508 0.610508 -0.79201 80.3404 9.02353)" stroke="white" stroke-width="3"/>
      <path d="M85.2999 15.0944L62.6 39.9426" stroke="white" stroke-width="3"/>
      <path d="M63.3826 158.391L-1.5 128.524" stroke="white" stroke-width="3"/>
      <path d="M63 118.024L-0.54149 93.4224" stroke="white" stroke-width="3"/>
      <path d="M25 141.379L-0.833845 130.024L-1 168.866L11.9463 169.024L25 141.379Z" fill="#598DBC" stroke="white"/>
      <path d="M0 95.0235V127.524L8 131.524L15 101.024L0 95.0235Z" fill="#5D94BD"/>
      <path d="M27 143.024L15.5 169.024H62V159.524L27 143.024Z" fill="#8AAEE0"/>
      <line x1="26.3688" y1="140.637" x2="13.3688" y2="169.637" stroke="white" stroke-width="3"/>
      <path d="M27 141.524L63.1851 118.764" stroke="white" stroke-width="3"/>
      <path d="M16.4632 101.354L8.99999 133.524" stroke="white" stroke-width="3"/>
      <path d="M63.2103 158.475L127.577 128.846" stroke="white" stroke-width="3"/>
      <path d="M63.5899 118.429L126.626 94.0235" stroke="white" stroke-width="3"/>
      <path d="M101.288 141.599L126.916 130.334L127.081 168.868L114.238 169.024L101.288 141.599Z" fill="#598DBC" stroke="white"/>
      <path d="M126.089 95.6119V127.854L118.153 131.822L111.208 101.564L126.089 95.6119Z" fill="#5D94BD"/>
      <path d="M99.3037 143.23L110.712 169.024H64.582V159.599L99.3037 143.23Z" fill="#8AAEE0"/>
      <line y1="-1.5" x2="31.5278" y2="-1.5" transform="matrix(0.409056 0.912509 0.912509 -0.409056 101.288 140.254)" stroke="white" stroke-width="3"/>
      <path d="M99.3036 141.742L63.4063 119.164" stroke="white" stroke-width="3"/>
      <path d="M109.757 101.892L117.161 133.806" stroke="white" stroke-width="3"/>
      <path d="M25.6784 100.048C33.7448 100.932 53.5054 95.2697 53.2073 92.6716C53.2073 92.6716 34.8006 93.1641 28.4628 85.3256C23.9204 79.7075 24.1035 74.6679 23.6747 67.456C22.9731 55.6558 31.9173 38.3302 31.9173 38.3302C31.9173 38.3302 40.997 78.0975 60.7613 80.2947C70.2706 81.3519 84.4265 73.9537 84.4265 73.9537C84.4265 73.9537 92.2038 70.1465 97.4665 70.4596C102.225 70.7427 108.938 74.6329 108.938 74.6329C108.938 74.6329 98.5018 74.3233 99.2783 77.2211C100.055 80.1189 90.5087 96.6529 76.9858 100.276C63.4628 103.9 54.7602 98.4671 54.7602 98.4671C54.7602 98.4671 36.8491 122.419 31.6312 122.264C26.4134 122.109 17.612 99.1643 25.6784 100.048Z" fill="#D1E3ED" stroke="white" stroke-width="2"/>
    </g>
  </symbol>
  <symbol id="logo-white" viewBox="0 0 124 168" fill="none">
    <mask id="mask0_44_118" style="mask-type:alpha" maskUnits="userSpaceOnUse" x="0" y="0" width="124" height="168">
      <rect y="59.2941" width="124" height="108.706" fill="#D9D9D9"/>
      <ellipse cx="62" cy="62.2588" rx="62" ry="62.2588" fill="#D9D9D9"/>
    </mask>
    <g mask="url(#mask0_44_118)">
      <path d="M11 132.524L18 102.524L60.5 119.024L27 140.024L11 132.524Z" stroke="black"/>
      <rect y="57.0235" width="125" height="112" fill="#B3B2B2"/>
      <ellipse cx="62.5" cy="59.5235" rx="62.5" ry="61.5" fill="#B3B2B2"/>
      <mask id="mask1_44_118" style="mask-type:alpha" maskUnits="userSpaceOnUse" x="0" y="-2" width="125" height="172">
        <rect y="57.0235" width="125" height="112" fill="#B3D0EE"/>
        <ellipse cx="62.5" cy="59.5235" rx="62.5" ry="61.5" fill="#B3D0EE"/>
      </mask>
      <g mask="url(#mask1_44_118)">
        <path d="M17.2121 102.024L10 133.744L25.9697 141.024L61 118.664L17.2121 102.024Z" fill="#6D6D6D"/>
        <path d="M109.081 100.024L117 134.997L99.4646 143.024L61 118.37L109.081 100.024Z" fill="#6D6D6D"/>
        <circle cx="63" cy="-6.97647" r="23.5" fill="#4E4E4E" stroke="white" stroke-width="3"/>
      </g>
      <line x1="63.5" y1="18.0235" x2="63.5" y2="169.024" stroke="white" stroke-width="3"/>
      <line y1="86.5235" x2="124" y2="86.5235" stroke="white" stroke-width="3"/>
      <path d="M41.726 16.0235L25 28.4089L62 70.0235V36.3355L41.726 16.0235Z" fill="#B3B2B2"/>
      <path d="M24 28.0296L64 72.0235" stroke="white" stroke-width="3"/>
      <path d="M46.3243 11.0235L42 14.215L62 36.0235V16.8746C55.2055 16.0429 51.7635 14.7825 46.3243 11.0235Z" fill="#6D6D6D"/>
      <line x1="46.9158" y1="10.2115" x2="-1.08424" y2="47.2115" stroke="white" stroke-width="3"/>
      <path d="M41.1077 15.0121L63.4999 39.5235" stroke="white" stroke-width="3"/>
      <path d="M84.6732 16.1197L101.629 28.6752L64.1206 70.8618V36.7108L84.6732 16.1197Z" fill="#B3B2B2"/>
      <path d="M102.643 28.2908L63 71.5235" stroke="white" stroke-width="3"/>
      <path d="M80.0116 11.051L84.3954 14.2864L64.1206 36.3946V16.9825C71.0084 16.1394 74.4977 14.8616 80.0116 11.051Z" fill="#6D6D6D"/>
      <line y1="-1.5" x2="61.4381" y2="-1.5" transform="matrix(0.79201 0.610508 0.610508 -0.79201 80.3405 9.02353)" stroke="white" stroke-width="3"/>
      <path d="M85.2999 15.0944L62.5999 39.9426" stroke="white" stroke-width="3"/>
      <path d="M63.3826 158.391L-1.50004 128.524" stroke="white" stroke-width="3"/>
      <path d="M63 118.024L-0.54149 93.4224" stroke="white" stroke-width="3"/>
      <path d="M25 141.379L-0.833845 130.024L-1 168.866L11.9463 169.024L25 141.379Z" fill="#4E4E4E" stroke="white"/>
      <path d="M0 95.0235V127.524L8 131.524L15 101.024L0 95.0235Z" fill="#4E4E4E"/>
      <path d="M27 143.024L15.5 169.024H62V159.524L27 143.024Z" fill="#6D6D6D"/>
      <line x1="26.3688" y1="140.637" x2="13.3688" y2="169.637" stroke="white" stroke-width="3"/>
      <path d="M27 141.524L63.1851 118.764" stroke="white" stroke-width="3"/>
      <path d="M16.4631 101.354L8.99998 133.524" stroke="white" stroke-width="3"/>
      <path d="M63.2103 158.475L127.577 128.846" stroke="white" stroke-width="3"/>
      <path d="M63.5898 118.429L126.626 94.0235" stroke="white" stroke-width="3"/>
      <path d="M101.288 141.599L126.916 130.334L127.081 168.868L114.238 169.024L101.288 141.599Z" fill="#4E4E4E" stroke="white"/>
      <path d="M126.089 95.6119V127.854L118.153 131.822L111.208 101.564L126.089 95.6119Z" fill="#4E4E4E"/>
      <path d="M99.3036 143.23L110.712 169.024H64.5819V159.599L99.3036 143.23Z" fill="#6D6D6D"/>
      <line y1="-1.5" x2="31.5278" y2="-1.5" transform="matrix(0.409056 0.912509 0.912509 -0.409056 101.288 140.254)" stroke="white" stroke-width="3"/>
      <path d="M99.3036 141.742L63.4062 119.164" stroke="white" stroke-width="3"/>
      <path d="M109.757 101.892L117.161 133.806" stroke="white" stroke-width="3"/>
      <path d="M25.6784 100.048C33.7448 100.932 53.5054 95.2697 53.2073 92.6716C53.2073 92.6716 34.8006 93.1641 28.4628 85.3256C23.9204 79.7075 24.1035 74.6679 23.6747 67.456C22.9731 55.6558 31.9173 38.3302 31.9173 38.3302C31.9173 38.3302 40.997 78.0975 60.7613 80.2947C70.2706 81.3519 84.4265 73.9537 84.4265 73.9537C84.4265 73.9537 92.2038 70.1465 97.4665 70.4596C102.225 70.7427 108.938 74.6329 108.938 74.6329C108.938 74.6329 98.5018 74.3233 99.2783 77.2211C100.055 80.1189 90.5087 96.6529 76.9858 100.276C63.4628 103.9 54.7602 98.4671 54.7602 98.4671C54.7602 98.4671 36.8491 122.419 31.6312 122.264C26.4134 122.109 17.612 99.1643 25.6784 100.048Z" fill="#4E4E4E" stroke="white" stroke-width="2"/>
    </g>
  </symbol>
  <symbol id="paypal" viewBox="0 0 124 33" fill="none">
    <path fill="#253B80" d="M46.211,6.749h-6.839c-0.468,0-0.866,0.34-0.939,0.802l-2.766,17.537c-0.055,0.346,0.213,0.658,0.564,0.658 h3.265c0.468,0,0.866-0.34,0.939-0.803l0.746-4.73c0.072-0.463,0.471-0.803,0.938-0.803h2.165c4.505,0,7.105-2.18,7.784-6.5 c0.306-1.89,0.013-3.375-0.872-4.415C50.224,7.353,48.5,6.749,46.211,6.749z M47,13.154c-0.374,2.454-2.249,2.454-4.062,2.454 h-1.032l0.724-4.583c0.043-0.277,0.283-0.481,0.563-0.481h0.473c1.235,0,2.4,0,3.002,0.704C47.027,11.668,47.137,12.292,47,13.154z" />
    <path fill="#253B80" d="M66.654,13.075h-3.275c-0.279,0-0.52,0.204-0.563,0.481l-0.145,0.916l-0.229-0.332 c-0.709-1.029-2.29-1.373-3.868-1.373c-3.619,0-6.71,2.741-7.312,6.586c-0.313,1.918,0.132,3.752,1.22,5.031 c0.998,1.176,2.426,1.666,4.125,1.666c2.916,0,4.533-1.875,4.533-1.875l-0.146,0.91c-0.055,0.348,0.213,0.66,0.562,0.66h2.95 c0.469,0,0.865-0.34,0.939-0.803l1.77-11.209C67.271,13.388,67.004,13.075,66.654,13.075z M62.089,19.449 c-0.316,1.871-1.801,3.127-3.695,3.127c-0.951,0-1.711-0.305-2.199-0.883c-0.484-0.574-0.668-1.391-0.514-2.301 c0.295-1.855,1.805-3.152,3.67-3.152c0.93,0,1.686,0.309,2.184,0.892C62.034,17.721,62.232,18.543,62.089,19.449z" />
    <path fill="#253B80" d="M84.096,13.075h-3.291c-0.314,0-0.609,0.156-0.787,0.417l-4.539,6.686l-1.924-6.425 c-0.121-0.402-0.492-0.678-0.912-0.678h-3.234c-0.393,0-0.666,0.384-0.541,0.754l3.625,10.638l-3.408,4.811 c-0.268,0.379,0.002,0.9,0.465,0.9h3.287c0.312,0,0.604-0.152,0.781-0.408L84.564,13.97C84.826,13.592,84.557,13.075,84.096,13.075z" />
    <path fill="#179BD7" d="M94.992,6.749h-6.84c-0.467,0-0.865,0.34-0.938,0.802l-2.766,17.537c-0.055,0.346,0.213,0.658,0.562,0.658 h3.51c0.326,0,0.605-0.238,0.656-0.562l0.785-4.971c0.072-0.463,0.471-0.803,0.938-0.803h2.164c4.506,0,7.105-2.18,7.785-6.5 c0.307-1.89,0.012-3.375-0.873-4.415C99.004,7.353,97.281,6.749,94.992,6.749z M95.781,13.154c-0.373,2.454-2.248,2.454-4.062,2.454 h-1.031l0.725-4.583c0.043-0.277,0.281-0.481,0.562-0.481h0.473c1.234,0,2.4,0,3.002,0.704 C95.809,11.668,95.918,12.292,95.781,13.154z"/>
    <path fill="#179BD7" d="M115.434,13.075h-3.273c-0.281,0-0.52,0.204-0.562,0.481l-0.145,0.916l-0.23-0.332 c-0.709-1.029-2.289-1.373-3.867-1.373c-3.619,0-6.709,2.741-7.311,6.586c-0.312,1.918,0.131,3.752,1.219,5.031 c1,1.176,2.426,1.666,4.125,1.666c2.916,0,4.533-1.875,4.533-1.875l-0.146,0.91c-0.055,0.348,0.213,0.66,0.564,0.66h2.949 c0.467,0,0.865-0.34,0.938-0.803l1.771-11.209C116.053,13.388,115.785,13.075,115.434,13.075z M110.869,19.449 c-0.314,1.871-1.801,3.127-3.695,3.127c-0.949,0-1.711-0.305-2.199-0.883c-0.484-0.574-0.666-1.391-0.514-2.301 c0.297-1.855,1.805-3.152,3.67-3.152c0.93,0,1.686,0.309,2.184,0.892C110.816,17.721,111.014,18.543,110.869,19.449z"/>
    <path fill="#179BD7" d="M119.295,7.23l-2.807,17.858c-0.055,0.346,0.213,0.658,0.562,0.658h2.822c0.469,0,0.867-0.34,0.939-0.803 l2.768-17.536c0.055-0.346-0.213-0.659-0.562-0.659h-3.16C119.578,6.749,119.338,6.953,119.295,7.23z"/>
    <path fill="#253B80" d="M7.266,29.154l0.523-3.322l-1.165-0.027H1.061L4.927,1.292C4.939,1.218,4.978,1.149,5.035,1.1 c0.057-0.049,0.13-0.076,0.206-0.076h9.38c3.114,0,5.263,0.648,6.385,1.927c0.526,0.6,0.861,1.227,1.023,1.917 c0.17,0.724,0.173,1.589,0.007,2.644l-0.012,0.077v0.676l0.526,0.298c0.443,0.235,0.795,0.504,1.065,0.812 c0.45,0.513,0.741,1.165,0.864,1.938c0.127,0.795,0.085,1.741-0.123,2.812c-0.24,1.232-0.628,2.305-1.152,3.183 c-0.482,0.809-1.096,1.48-1.825,2c-0.696,0.494-1.523,0.869-2.458,1.109c-0.906,0.236-1.939,0.355-3.072,0.355h-0.73 c-0.522,0-1.029,0.188-1.427,0.525c-0.399,0.344-0.663,0.814-0.744,1.328l-0.055,0.299l-0.924,5.855l-0.042,0.215 c-0.011,0.068-0.03,0.102-0.058,0.125c-0.025,0.021-0.061,0.035-0.096,0.035H7.266z"/>
    <path fill="#179BD7" d="M23.048,7.667L23.048,7.667L23.048,7.667c-0.028,0.179-0.06,0.362-0.096,0.55 c-1.237,6.351-5.469,8.545-10.874,8.545H9.326c-0.661,0-1.218,0.48-1.321,1.132l0,0l0,0L6.596,26.83l-0.399,2.533 c-0.067,0.428,0.263,0.814,0.695,0.814h4.881c0.578,0,1.069-0.42,1.16-0.99l0.048-0.248l0.919-5.832l0.059-0.32 c0.09-0.572,0.582-0.992,1.16-0.992h0.73c4.729,0,8.431-1.92,9.513-7.476c0.452-2.321,0.218-4.259-0.978-5.622 C24.022,8.286,23.573,7.945,23.048,7.667z"/>
    <path fill="#222D65" d="M21.754,7.151c-0.189-0.055-0.384-0.105-0.584-0.15c-0.201-0.044-0.407-0.083-0.619-0.117 c-0.742-0.12-1.555-0.177-2.426-0.177h-7.352c-0.181,0-0.353,0.041-0.507,0.115C9.927,6.985,9.675,7.306,9.614,7.699L8.05,17.605 l-0.045,0.289c0.103-0.652,0.66-1.132,1.321-1.132h2.752c5.405,0,9.637-2.195,10.874-8.545c0.037-0.188,0.068-0.371,0.096-0.55 c-0.313-0.166-0.652-0.308-1.017-0.429C21.941,7.208,21.848,7.179,21.754,7.151z"/>
    <path fill="#253B80" d="M9.614,7.699c0.061-0.393,0.313-0.714,0.652-0.876c0.155-0.074,0.326-0.115,0.507-0.115h7.352 c0.871,0,1.684,0.057,2.426,0.177c0.212,0.034,0.418,0.073,0.619,0.117c0.2,0.045,0.395,0.095,0.584,0.15 c0.094,0.028,0.187,0.057,0.278,0.086c0.365,0.121,0.704,0.264,1.017,0.429c0.368-2.347-0.003-3.945-1.272-5.392 C20.378,0.682,17.853,0,14.622,0h-9.38c-0.66,0-1.223,0.48-1.325,1.133L0.01,25.898c-0.077,0.49,0.301,0.932,0.795,0.932h5.791 l1.454-9.225L9.614,7.699z"/>
  </symbol>
  <symbol id="visa" viewBox="0 0 1000 324.68351" fill="none">
    <defs id="defs3737">
      <linearGradient id="linearGradient3801">
        <stop style="stop-color:#20225f;stop-opacity:1" offset="0" id="stop3803" />
        <stop id="stop3815" offset="0.2" style="stop-color:#1a1f61;stop-opacity:1" />
        <stop id="stop3813" offset="0.41023257" style="stop-color:#172272;stop-opacity:1" />
        <stop id="stop3811" offset="0.59519672" style="stop-color:#152682;stop-opacity:1" />
        <stop id="stop3809" offset="0.80208331" style="stop-color:#12288e;stop-opacity:1" />
        <stop style="stop-color:#0e2c9a;stop-opacity:1" offset="1" id="stop3805" />
      </linearGradient>
    </defs>
    <path style="fill:#1434cb;fill-opacity:1;stroke:none" d="m 651.18503,0.50000002 c -70.93272,0 -134.32163,36.76584998 -134.32163,104.69357998 0,77.90028 112.42264,83.28082 112.42264,122.41576 0,16.47806 -18.88384,31.22851 -51.13668,31.22851 -45.77308,0 -79.98403,-20.61081 -79.98403,-20.61081 l -14.63836,68.54658 c 0,0 39.41037,17.40989 91.73375,17.40989 77.55217,0 138.57651,-38.57104 138.57651,-107.66029 0,-82.3157 -112.89106,-87.53633 -112.89106,-123.86008 0,-12.9082 15.50201,-27.05169 47.66251,-27.05169 36.28682,0 65.89216,14.98968 65.89216,14.98968 l 14.32608,-66.20444 c 0,0 -32.21317,-13.89668998 -77.64189,-13.89668998 z M 2.2175605,5.49657 0.49999253,15.48969 c 0,0 29.84159547,5.46149 56.71878047,16.35593 34.606624,12.4927 37.071853,19.7653 42.900167,42.35367 l 63.51098,244.83152 85.13673,0 131.15974,-313.53424 -84.94155,0 L 210.7069,218.67018 176.3165,37.97422 C 173.1626,17.29371 157.18709,5.49657 137.63219,5.49657 l -135.4146295,0 z m 411.8650095,0 -66.63383,313.53424 80.99895,0 66.39962,-313.53424 -80.76474,0 z m 451.75943,0 c -19.53181,0 -29.88045,10.45695 -37.47421,28.73022 l -118.66834,284.80402 84.94155,0 16.434,-47.46734 103.48348,0 9.99312,47.46734 74.94843,0 -65.3847,-313.53424 -68.27333,0 z m 11.04709,84.70733 25.17799,117.65341 -67.45359,0 42.2756,-117.65341 z" />
  </symbol>
  <symbol id="mastercard" viewBox="0 0 1000.008 618.03103" fill="none">
    <g transform="matrix(8.5837610323 0 0 8.5837610323 -2898.73609385976 -2239.50304064073)">
      <path d="m380.20001 268.60001h31.5v56.599998h-31.5z" fill="#ff5f00"/>
      <path d="m382.2 296.9c0-11.5 5.4-21.7 13.7-28.3-6.1-4.8-13.8-7.7-22.2-7.7-19.9 0-36 16.1-36 36s16.1 36 36 36c8.4 0 16.1-2.9 22.2-7.7-8.3-6.5-13.7-16.8-13.7-28.3z" fill="#eb001b"/>
      <path d="m454.2 296.9c0 19.9-16.1 36-36 36-8.4 0-16.1-2.9-22.2-7.7 8.4-6.6 13.7-16.8 13.7-28.3s-5.4-21.7-13.7-28.3c6.1-4.8 13.8-7.7 22.2-7.7 19.9 0 36 16.2 36 36z" fill="#f79e1b"/>
    </g>
  </symbol>
  <symbol id="copyright" viewBox="0 0 35 35" fill="none">
    <circle cx="17.5" cy="17.5" r="17.5" fill="#D9D9D9"/>
    <path d="M11.528 17.368C11.528 16.2587 11.768 15.272 12.248 14.408C12.728 13.5333 13.3947 12.856 14.248 12.376C15.112 11.8853 16.088 11.64 17.176 11.64C18.5093 11.64 19.6507 11.992 20.6 12.696C21.5493 13.4 22.184 14.36 22.504 15.576H19.496C19.272 15.1067 18.952 14.7493 18.536 14.504C18.1307 14.2587 17.6667 14.136 17.144 14.136C16.3013 14.136 15.6187 14.4293 15.096 15.016C14.5733 15.6027 14.312 16.3867 14.312 17.368C14.312 18.3493 14.5733 19.1333 15.096 19.72C15.6187 20.3067 16.3013 20.6 17.144 20.6C17.6667 20.6 18.1307 20.4773 18.536 20.232C18.952 19.9867 19.272 19.6293 19.496 19.16H22.504C22.184 20.376 21.5493 21.336 20.6 22.04C19.6507 22.7333 18.5093 23.08 17.176 23.08C16.088 23.08 15.112 22.84 14.248 22.36C13.3947 21.8693 12.728 21.192 12.248 20.328C11.768 19.464 11.528 18.4773 11.528 17.368Z" fill="black"/>
  </symbol>
  <symbol id="globe" viewBox="0 0 29 28" fill="none">
    <path d="M14.5 24.5C20.299 24.5 25 19.799 25 14C25 8.20101 20.299 3.5 14.5 3.5C8.70101 3.5 4 8.20101 4 14C4 19.799 8.70101 24.5 14.5 24.5Z" stroke="currentColor" stroke-miterlimit="10"/>
    <path d="M4.60156 10.5H24.3984" stroke="currentColor" stroke-linecap="round" stroke-linejoin="round"/>
    <path d="M4.60156 17.5H24.3984" stroke="currentColor" stroke-linecap="round" stroke-linejoin="round"/>
    <path d="M14.5 24.2157C16.9162 24.2157 18.875 19.642 18.875 14C18.875 8.35811 16.9162 3.78442 14.5 3.78442C12.0838 3.78442 10.125 8.35811 10.125 14C10.125 19.642 12.0838 24.2157 14.5 24.2157Z" stroke="currentColor" stroke-miterlimit="10"/>
  </symbol>
  <symbol id="caret" viewBox="0 0 23 12" fill="none">
    <path d="M0.792491 0.292691C0.885364 0.199715 0.995654 0.125956 1.11705 0.0756311C1.23845 0.0253067 1.36858 -0.000594199 1.49999 -0.000594211C1.63141 -0.000594222 1.76153 0.0253066 1.88293 0.075631C2.00433 0.125955 2.11462 0.199715 2.20749 0.292691L11.5 9.58644L20.7925 0.292689C20.9801 0.105049 21.2346 -0.000367054 21.5 -0.000367077C21.7654 -0.0003671 22.0199 0.105049 22.2075 0.292689C22.3951 0.48033 22.5005 0.734826 22.5005 1.00019C22.5005 1.26555 22.3951 1.52005 22.2075 1.70769L12.2075 11.7077C12.1146 11.8007 12.0043 11.8744 11.8829 11.9248C11.7615 11.9751 11.6314 12.001 11.5 12.001C11.3686 12.001 11.2385 11.9751 11.1171 11.9248C10.9957 11.8744 10.8854 11.8007 10.7925 11.7077L0.792491 1.70769C0.699515 1.61482 0.625754 1.50453 0.575431 1.38313C0.525107 1.26173 0.499206 1.13161 0.499206 1.00019C0.499206 0.868776 0.525107 0.738649 0.575431 0.617251C0.625754 0.495853 0.699515 0.385564 0.792491 0.292691Z" fill="#333333"/>
  </symbol>
  <symbol id="note" viewBox="0 0 45 46" fill="none">
    <path d="M13.125 15.5C13.125 15.0027 13.3225 14.5258 13.6742 14.1742C14.0258 13.8225 14.5027 13.625 15 13.625H30C30.4973 13.625 30.9742 13.8225 31.3258 14.1742C31.6775 14.5258 31.875 15.0027 31.875 15.5C31.875 15.9973 31.6775 16.4742 31.3258 16.8258C30.9742 17.1775 30.4973 17.375 30 17.375H15C14.5027 17.375 14.0258 17.1775 13.6742 16.8258C13.3225 16.4742 13.125 15.9973 13.125 15.5ZM15 24.875H30C30.4973 24.875 30.9742 24.6775 31.3258 24.3258C31.6775 23.9742 31.875 23.4973 31.875 23C31.875 22.5027 31.6775 22.0258 31.3258 21.6742C30.9742 21.3225 30.4973 21.125 30 21.125H15C14.5027 21.125 14.0258 21.3225 13.6742 21.6742C13.3225 22.0258 13.125 22.5027 13.125 23C13.125 23.4973 13.3225 23.9742 13.6742 24.3258C14.0258 24.6775 14.5027 24.875 15 24.875ZM22.5 28.625H15C14.5027 28.625 14.0258 28.8225 13.6742 29.1742C13.3225 29.5258 13.125 30.0027 13.125 30.5C13.125 30.9973 13.3225 31.4742 13.6742 31.8258C14.0258 32.1775 14.5027 32.375 15 32.375H22.5C22.9973 32.375 23.4742 32.1775 23.8258 31.8258C24.1775 31.4742 24.375 30.9973 24.375 30.5C24.375 30.0027 24.1775 29.5258 23.8258 29.1742C23.4742 28.8225 22.9973 28.625 22.5 28.625ZM45 4.25V29.7242C45.0016 30.2169 44.9052 30.7049 44.7165 31.16C44.5278 31.615 44.2505 32.028 43.9008 32.375L31.875 44.4008C31.528 44.7505 31.115 45.0278 30.66 45.2165C30.2049 45.4052 29.7169 45.5016 29.2242 45.5H3.75C2.75544 45.5 1.80161 45.1049 1.09835 44.4016C0.395088 43.6984 0 42.7446 0 41.75V4.25C0 3.25544 0.395088 2.30161 1.09835 1.59835C1.80161 0.895088 2.75544 0.5 3.75 0.5H41.25C42.2446 0.5 43.1984 0.895088 43.9016 1.59835C44.6049 2.30161 45 3.25544 45 4.25ZM3.75 41.75H28.125V30.5C28.125 30.0027 28.3225 29.5258 28.6742 29.1742C29.0258 28.8225 29.5027 28.625 30 28.625H41.25V4.25H3.75V41.75ZM31.875 32.375V39.1016L38.5992 32.375H31.875Z" fill="currentColor"/>
  </symbol>
  <symbol id="loading" viewBox="0 0 41 40" fill="none">
    <path d="M22.0385 1.53846V7.69231C22.0385 8.10033 21.8764 8.49165 21.5879 8.78016C21.2993 9.06868 20.908 9.23077 20.5 9.23077C20.092 9.23077 19.7007 9.06868 19.4121 8.78016C19.1236 8.49165 18.9615 8.10033 18.9615 7.69231V1.53846C18.9615 1.13044 19.1236 0.739122 19.4121 0.450605C19.7007 0.162087 20.092 0 20.5 0C20.908 0 21.2993 0.162087 21.5879 0.450605C21.8764 0.739122 22.0385 1.13044 22.0385 1.53846ZM29.2019 12.8365C29.4042 12.8364 29.6044 12.7965 29.7911 12.7189C29.9779 12.6414 30.1476 12.5278 30.2904 12.3846L34.6423 8.03462C34.931 7.74594 35.0932 7.35441 35.0932 6.94615C35.0932 6.5379 34.931 6.14637 34.6423 5.85769C34.3536 5.56901 33.9621 5.40684 33.5538 5.40684C33.1456 5.40684 32.7541 5.56901 32.4654 5.85769L28.1154 10.2096C27.9001 10.4247 27.7534 10.6987 27.6939 10.9971C27.6344 11.2955 27.6647 11.6049 27.781 11.8861C27.8973 12.1673 28.0944 12.4077 28.3473 12.5768C28.6002 12.746 28.8976 12.8364 29.2019 12.8365ZM38.9615 18.4615H32.8077C32.3997 18.4615 32.0084 18.6236 31.7198 18.9121C31.4313 19.2007 31.2692 19.592 31.2692 20C31.2692 20.408 31.4313 20.7993 31.7198 21.0879C32.0084 21.3764 32.3997 21.5385 32.8077 21.5385H38.9615C39.3696 21.5385 39.7609 21.3764 40.0494 21.0879C40.3379 20.7993 40.5 20.408 40.5 20C40.5 19.592 40.3379 19.2007 40.0494 18.9121C39.7609 18.6236 39.3696 18.4615 38.9615 18.4615ZM30.2904 27.6154C29.9995 27.339 29.6122 27.1873 29.211 27.1924C28.8099 27.1975 28.4266 27.3592 28.1429 27.6429C27.8592 27.9266 27.6975 28.3099 27.6924 28.711C27.6873 29.1122 27.839 29.4995 28.1154 29.7904L32.4654 34.1423C32.7541 34.431 33.1456 34.5932 33.5538 34.5932C33.9621 34.5932 34.3536 34.431 34.6423 34.1423C34.931 33.8536 35.0932 33.4621 35.0932 33.0538C35.0932 32.6456 34.931 32.2541 34.6423 31.9654L30.2904 27.6154ZM20.5 30.7692C20.092 30.7692 19.7007 30.9313 19.4121 31.2198C19.1236 31.5084 18.9615 31.8997 18.9615 32.3077V38.4615C18.9615 38.8696 19.1236 39.2609 19.4121 39.5494C19.7007 39.8379 20.092 40 20.5 40C20.908 40 21.2993 39.8379 21.5879 39.5494C21.8764 39.2609 22.0385 38.8696 22.0385 38.4615V32.3077C22.0385 31.8997 21.8764 31.5084 21.5879 31.2198C21.2993 30.9313 20.908 30.7692 20.5 30.7692ZM10.7096 27.6154L6.35769 31.9654C6.06901 32.2541 5.90684 32.6456 5.90684 33.0538C5.90684 33.4621 6.06901 33.8536 6.35769 34.1423C6.64637 34.431 7.0379 34.5932 7.44615 34.5932C7.85441 34.5932 8.24594 34.431 8.53462 34.1423L12.8846 29.7904C13.161 29.4995 13.3127 29.1122 13.3076 28.711C13.3025 28.3099 13.1408 27.9266 12.8571 27.6429C12.5734 27.3592 12.1901 27.1975 11.789 27.1924C11.3878 27.1873 11.0005 27.339 10.7096 27.6154ZM9.73077 20C9.73077 19.592 9.56868 19.2007 9.28016 18.9121C8.99165 18.6236 8.60033 18.4615 8.19231 18.4615H2.03846C1.63044 18.4615 1.23912 18.6236 0.950605 18.9121C0.662087 19.2007 0.5 19.592 0.5 20C0.5 20.408 0.662087 20.7993 0.950605 21.0879C1.23912 21.3764 1.63044 21.5385 2.03846 21.5385H8.19231C8.60033 21.5385 8.99165 21.3764 9.28016 21.0879C9.56868 20.7993 9.73077 20.408 9.73077 20ZM8.53462 5.85769C8.24594 5.56901 7.85441 5.40684 7.44615 5.40684C7.0379 5.40684 6.64637 5.56901 6.35769 5.85769C6.06901 6.14637 5.90684 6.5379 5.90684 6.94615C5.90684 7.35441 6.06901 7.74594 6.35769 8.03462L10.7096 12.3846C11.0005 12.661 11.3878 12.8127 11.789 12.8076C12.1901 12.8025 12.5734 12.6408 12.8571 12.3571C13.1408 12.0734 13.3025 11.6901 13.3076 11.289C13.3127 10.8878 13.161 10.5005 12.8846 10.2096L8.53462 5.85769Z" fill="currentColor"/>
  </symbol>
  <symbol id="payment" viewBox="0 0 49 50" fill="none">
    <path d="M24.5 0.625C19.6791 0.625 14.9664 2.05457 10.958 4.73293C6.94954 7.41129 3.82533 11.2181 1.98045 15.6721C0.135561 20.126 -0.347145 25.027 0.59337 29.7553C1.53388 34.4836 3.85538 38.8268 7.26428 42.2357C10.6732 45.6446 15.0164 47.9661 19.7447 48.9066C24.473 49.8472 29.374 49.3644 33.8279 47.5196C38.2819 45.6747 42.0887 42.5505 44.7671 38.542C47.4454 34.5336 48.875 29.8209 48.875 25C48.8682 18.5374 46.2979 12.3415 41.7282 7.77181C37.1585 3.20209 30.9626 0.631825 24.5 0.625ZM24.5 45.625C20.4208 45.625 16.4331 44.4154 13.0414 42.1491C9.64961 39.8828 7.00605 36.6616 5.445 32.8928C3.88394 29.1241 3.47549 24.9771 4.27131 20.9763C5.06713 16.9754 7.03148 13.3004 9.91593 10.4159C12.8004 7.53147 16.4754 5.56712 20.4763 4.7713C24.4771 3.97548 28.6241 4.38393 32.3929 5.94498C36.1616 7.50604 39.3828 10.1496 41.6491 13.5414C43.9154 16.9331 45.125 20.9208 45.125 25C45.1188 30.4682 42.9438 35.7106 39.0772 39.5772C35.2106 43.4438 29.9682 45.6188 24.5 45.625ZM33.875 29.6875C33.875 31.428 33.1836 33.0972 31.9529 34.3279C30.7222 35.5586 29.053 36.25 27.3125 36.25H26.375V38.125C26.375 38.6223 26.1775 39.0992 25.8258 39.4508C25.4742 39.8025 24.9973 40 24.5 40C24.0027 40 23.5258 39.8025 23.1742 39.4508C22.8226 39.0992 22.625 38.6223 22.625 38.125V36.25H18.875C18.3777 36.25 17.9008 36.0525 17.5492 35.7008C17.1976 35.3492 17 34.8723 17 34.375C17 33.8777 17.1976 33.4008 17.5492 33.0492C17.9008 32.6975 18.3777 32.5 18.875 32.5H27.3125C28.0584 32.5 28.7738 32.2037 29.3012 31.6762C29.8287 31.1488 30.125 30.4334 30.125 29.6875C30.125 28.9416 29.8287 28.2262 29.3012 27.6988C28.7738 27.1713 28.0584 26.875 27.3125 26.875H21.6875C19.947 26.875 18.2778 26.1836 17.0471 24.9529C15.8164 23.7222 15.125 22.053 15.125 20.3125C15.125 18.572 15.8164 16.9028 17.0471 15.6721C18.2778 14.4414 19.947 13.75 21.6875 13.75H22.625V11.875C22.625 11.3777 22.8226 10.9008 23.1742 10.5492C23.5258 10.1975 24.0027 10 24.5 10C24.9973 10 25.4742 10.1975 25.8258 10.5492C26.1775 10.9008 26.375 11.3777 26.375 11.875V13.75H30.125C30.6223 13.75 31.0992 13.9475 31.4508 14.2992C31.8025 14.6508 32 15.1277 32 15.625C32 16.1223 31.8025 16.5992 31.4508 16.9508C31.0992 17.3025 30.6223 17.5 30.125 17.5H21.6875C20.9416 17.5 20.2262 17.7963 19.6988 18.3238C19.1713 18.8512 18.875 19.5666 18.875 20.3125C18.875 21.0584 19.1713 21.7738 19.6988 22.3012C20.2262 22.8287 20.9416 23.125 21.6875 23.125H27.3125C29.053 23.125 30.7222 23.8164 31.9529 25.0471C33.1836 26.2778 33.875 27.947 33.875 29.6875Z" fill="currentColor"/>
  </symbol>
  <symbol id="pray" viewBox="0 0 53 55" fill="none">
    <path d="M51.6531 40.6873L43.1594 32.1912L34.6141 3.99827C34.3712 3.19548 33.9341 2.46498 33.3415 1.87147C32.7489 1.27796 32.019 0.839771 31.2166 0.595708C30.4142 0.351644 29.564 0.309245 28.7413 0.472265C27.9185 0.635285 27.1487 0.998693 26.5 1.5303C25.8513 0.998693 25.0815 0.635285 24.2587 0.472265C23.436 0.309245 22.5858 0.351644 21.7834 0.595708C20.981 0.839771 20.2511 1.27796 19.6585 1.87147C19.0659 2.46498 18.6288 3.19548 18.3859 3.99827L9.84062 32.1936L1.34687 40.6873C0.644141 41.3905 0.24939 42.344 0.24939 43.3381C0.24939 44.3322 0.644141 45.2857 1.34687 45.9889L9.00859 53.6506C9.35682 53.9989 9.77025 54.2752 10.2253 54.4637C10.6803 54.6522 11.168 54.7493 11.6605 54.7493C12.1531 54.7493 12.6408 54.6522 13.0958 54.4637C13.5508 54.2752 13.9643 53.9989 14.3125 53.6506L25.6281 42.328C25.9418 42.0135 26.2331 41.6775 26.5 41.3225C26.7668 41.6775 27.0582 42.0135 27.3719 42.328L38.6875 53.653C39.0357 54.0013 39.4492 54.2776 39.9042 54.4661C40.3592 54.6546 40.8469 54.7516 41.3394 54.7516C41.832 54.7516 42.3197 54.6546 42.7747 54.4661C43.2297 54.2776 43.6432 54.0013 43.9914 53.653L51.6531 45.9912C52.0014 45.643 52.2777 45.2296 52.4662 44.7745C52.6547 44.3195 52.7518 43.8318 52.7518 43.3393C52.7518 42.8468 52.6547 42.359 52.4662 41.904C52.2777 41.449 52.0014 41.0356 51.6531 40.6873ZM11.6594 50.9998L4 43.3405L6.97421 40.3662L14.6359 48.028L11.6594 50.9998ZM24.625 35.7069C24.6287 36.4465 24.4857 37.1795 24.204 37.8635C23.9224 38.5474 23.5078 39.1687 22.9844 39.6912L17.2844 45.3748L9.625 37.7155L12.8242 34.5139C13.0425 34.2955 13.2036 34.0266 13.293 33.7311L21.9648 5.08577C22.0528 4.76701 22.2543 4.49144 22.5314 4.31097C22.8085 4.13051 23.142 4.05762 23.4691 4.10603C23.7962 4.15445 24.0943 4.32083 24.3072 4.57383C24.5201 4.82682 24.6331 5.14895 24.625 5.47952V35.7069ZM30.0156 39.6912C29.4921 39.1687 29.0776 38.5474 28.796 37.8635C28.5143 37.1795 28.3713 36.4465 28.375 35.7069V5.47249C28.3751 5.14775 28.4918 4.83385 28.7039 4.58796C28.916 4.34208 29.2094 4.18057 29.5306 4.13286C29.8519 4.08514 30.1795 4.1544 30.4539 4.32801C30.7284 4.50163 30.9313 4.76805 31.0258 5.07873L39.6977 33.724C39.7871 34.0196 39.9481 34.2885 40.1664 34.5069L43.5625 37.903L35.7344 45.403L30.0156 39.6912ZM41.3406 50.9998L38.3969 48.0537L46.2226 40.5537L49 43.3405L41.3406 50.9998Z" fill="currentColor"/>
  </symbol>
  <symbol id="check" viewBox="0 0 49 49" fill="none">
    <path d="M35.2016 17.5484C35.3759 17.7226 35.5142 17.9294 35.6086 18.157C35.7029 18.3846 35.7515 18.6286 35.7515 18.875C35.7515 19.1214 35.7029 19.3654 35.6086 19.593C35.5142 19.8206 35.3759 20.0274 35.2016 20.2016L22.0766 33.3266C21.9024 33.5009 21.6956 33.6392 21.468 33.7336C21.2404 33.8279 20.9964 33.8765 20.75 33.8765C20.5036 33.8765 20.2596 33.8279 20.032 33.7336C19.8044 33.6392 19.5976 33.5009 19.4234 33.3266L13.7984 27.7016C13.4466 27.3497 13.249 26.8726 13.249 26.375C13.249 25.8774 13.4466 25.4003 13.7984 25.0484C14.1503 24.6966 14.6275 24.499 15.125 24.499C15.6226 24.499 16.0997 24.6966 16.4516 25.0484L20.75 29.3492L32.5484 17.5484C32.7226 17.3741 32.9294 17.2358 33.157 17.1415C33.3846 17.0471 33.6286 16.9985 33.875 16.9985C34.1214 16.9985 34.3654 17.0471 34.593 17.1415C34.8206 17.2358 35.0274 17.3741 35.2016 17.5484ZM48.875 24.5C48.875 29.3209 47.4454 34.0336 44.7671 38.042C42.0887 42.0505 38.2819 45.1747 33.8279 47.0196C29.374 48.8644 24.473 49.3472 19.7447 48.4066C15.0164 47.4661 10.6732 45.1446 7.26428 41.7357C3.85538 38.3268 1.53388 33.9836 0.59337 29.2553C-0.347145 24.527 0.135561 19.626 1.98045 15.1721C3.82533 10.7181 6.94954 6.91129 10.958 4.23293C14.9664 1.55457 19.6791 0.125 24.5 0.125C30.9626 0.131825 37.1585 2.70209 41.7282 7.27181C46.2979 11.8415 48.8682 18.0374 48.875 24.5ZM45.125 24.5C45.125 20.4208 43.9154 16.4331 41.6491 13.0414C39.3828 9.6496 36.1616 7.00604 32.3929 5.44498C28.6241 3.88393 24.4771 3.47548 20.4763 4.2713C16.4754 5.06712 12.8004 7.03147 9.91593 9.91592C7.03148 12.8004 5.06713 16.4754 4.27131 20.4763C3.47549 24.4771 3.88394 28.6241 5.445 32.3928C7.00605 36.1616 9.64961 39.3828 13.0414 41.6491C16.4331 43.9154 20.4208 45.125 24.5 45.125C29.9682 45.1188 35.2106 42.9438 39.0772 39.0772C42.9438 35.2106 45.1188 29.9682 45.125 24.5Z" fill="currentColor"/>
  </symbol>
  <symbol id="question" viewBox="0 0 32 32" fill="none">
    <path d="M17.8462 24C17.8462 24.3651 17.7379 24.7221 17.535 25.0257C17.3322 25.3293 17.0438 25.5659 16.7065 25.7056C16.3692 25.8453 15.998 25.8819 15.6398 25.8107C15.2817 25.7394 14.9528 25.5636 14.6946 25.3054C14.4364 25.0472 14.2606 24.7183 14.1893 24.3602C14.1181 24.002 14.1546 23.6308 14.2944 23.2935C14.4341 22.9562 14.6707 22.6678 14.9743 22.465C15.2779 22.2621 15.6349 22.1538 16 22.1538C16.4896 22.1538 16.9592 22.3483 17.3054 22.6946C17.6517 23.0408 17.8462 23.5104 17.8462 24ZM16 7.38461C12.6062 7.38461 9.84616 9.86923 9.84616 12.9231V13.5385C9.84616 13.8649 9.97583 14.1779 10.2066 14.4087C10.4375 14.6396 10.7505 14.7692 11.0769 14.7692C11.4033 14.7692 11.7164 14.6396 11.9472 14.4087C12.178 14.1779 12.3077 13.8649 12.3077 13.5385V12.9231C12.3077 11.2308 13.9646 9.84615 16 9.84615C18.0354 9.84615 19.6923 11.2308 19.6923 12.9231C19.6923 14.6154 18.0354 16 16 16C15.6736 16 15.3605 16.1297 15.1297 16.3605C14.8989 16.5913 14.7692 16.9043 14.7692 17.2308V18.4615C14.7692 18.788 14.8989 19.101 15.1297 19.3318C15.3605 19.5626 15.6736 19.6923 16 19.6923C16.3264 19.6923 16.6395 19.5626 16.8703 19.3318C17.1011 19.101 17.2308 18.788 17.2308 18.4615V18.3508C20.0369 17.8354 22.1538 15.5969 22.1538 12.9231C22.1538 9.86923 19.3938 7.38461 16 7.38461ZM32 16C32 19.1645 31.0616 22.2579 29.3035 24.8891C27.5454 27.5203 25.0466 29.5711 22.1229 30.7821C19.1993 31.9931 15.9823 32.3099 12.8786 31.6926C9.77486 31.0752 6.92394 29.5513 4.6863 27.3137C2.44866 25.0761 0.924806 22.2251 0.307443 19.1214C-0.309921 16.0177 0.00693255 12.8007 1.21793 9.87706C2.42894 6.95344 4.4797 4.45459 7.11088 2.69649C9.74207 0.938383 12.8355 0 16 0C20.2421 0.00447972 24.3092 1.69163 27.3088 4.69124C30.3084 7.69085 31.9955 11.7579 32 16ZM29.5385 16C29.5385 13.3223 28.7444 10.7048 27.2568 8.47843C25.7692 6.25204 23.6548 4.51679 21.1809 3.49209C18.7071 2.4674 15.985 2.19929 13.3588 2.72168C10.7326 3.24406 8.32026 4.53347 6.42687 6.42686C4.53348 8.32025 3.24407 10.7326 2.72168 13.3588C2.1993 15.985 2.4674 18.7071 3.4921 21.1809C4.51679 23.6548 6.25205 25.7692 8.47844 27.2568C10.7048 28.7444 13.3223 29.5385 16 29.5385C19.5894 29.5344 23.0306 28.1067 25.5686 25.5686C28.1067 23.0306 29.5344 19.5894 29.5385 16Z" fill="currentColor"/>
  </symbol>
  <symbol id="active-loader" viewBox="0 0 51 50" fill="none">
    <path d="M23.5769 1.92308L23.5769 9.61539C23.5769 10.1254 23.7795 10.6146 24.1402 10.9752C24.5008 11.3359 24.99 11.5385 25.5 11.5385C26.01 11.5385 26.4992 11.3359 26.8598 10.9752C27.2205 10.6146 27.4231 10.1254 27.4231 9.61539L27.4231 1.92308C27.4231 1.41305 27.2205 0.923903 26.8598 0.563254C26.4992 0.202609 26.01 -1.11508e-06 25.5 -1.09278e-06C24.99 -1.07049e-06 24.5008 0.202609 24.1402 0.563254C23.7795 0.923903 23.5769 1.41305 23.5769 1.92308Z" fill="#BDBDBD"/>
    <path d="M35.0192 12.762C34.6738 13.1256 34.4841 13.6097 34.4905 14.1112C34.4969 14.6127 34.699 15.0918 35.0536 15.4464C35.4082 15.801 35.8873 16.0031 36.3888 16.0095C36.8903 16.0159 37.3744 15.8262 37.738 15.4808L43.1779 10.0433C43.5387 9.68242 43.7414 9.19301 43.7414 8.68269C43.7414 8.17238 43.5387 7.68296 43.1779 7.32211C42.817 6.96127 42.3276 6.75855 41.8173 6.75855C41.307 6.75855 40.8176 6.96127 40.4567 7.32212L35.0192 12.762Z" fill="#BDBDBD"/>
    <path fill-rule="evenodd" clip-rule="evenodd" d="M10.1154 23.0769L2.42308 23.0769C1.91304 23.0769 1.4239 23.2795 1.06325 23.6402C0.702608 24.0008 0.499999 24.49 0.499999 25C0.499999 25.51 0.702608 25.9992 1.06326 26.3598C1.4239 26.7205 1.91304 26.9231 2.42308 26.9231L10.1154 26.9231C10.6254 26.9231 11.1146 26.7205 11.4752 26.3598C11.8359 25.9992 12.0385 25.51 12.0385 25C12.0385 24.49 11.8359 24.0008 11.4752 23.6402C11.1146 23.2795 10.6254 23.0769 10.1154 23.0769ZM16.3987 13.3861C16.4956 13.6195 16.5456 13.8698 16.5457 14.1226C16.5455 14.503 16.4325 14.8747 16.2211 15.1909C16.0096 15.507 15.7091 15.7534 15.3576 15.8988C15.0061 16.0442 14.6194 16.082 14.2464 16.0076C13.8734 15.9332 13.5308 15.7499 13.262 15.4808L7.82211 10.0433C7.46127 9.68242 7.25854 9.19301 7.25854 8.68269C7.25854 8.17238 7.46127 7.68296 7.82211 7.32212C8.18296 6.96127 8.67237 6.75855 9.18269 6.75855C9.69301 6.75855 10.1824 6.96127 10.5433 7.32212L15.9808 12.762C16.1597 12.9405 16.3017 13.1526 16.3987 13.3861ZM40.4567 42.6779L35.0192 37.238C34.6738 36.8744 34.4841 36.3903 34.4905 35.8888C34.4969 35.3873 34.699 34.9082 35.0536 34.5536C35.4082 34.199 35.8873 33.9969 36.3888 33.9905C36.8903 33.9841 37.3744 34.1738 37.738 34.5192L43.1779 39.9567C43.5387 40.3176 43.7415 40.807 43.7415 41.3173C43.7415 41.8276 43.5387 42.317 43.1779 42.6779C42.817 43.0387 42.3276 43.2415 41.8173 43.2415C41.307 43.2415 40.8176 43.0387 40.4567 42.6779ZM24.1402 39.0248C24.5008 38.6641 24.99 38.4615 25.5 38.4615C26.01 38.4615 26.4992 38.6641 26.8598 39.0248C27.2205 39.3854 27.4231 39.8746 27.4231 40.3846L27.4231 48.0769C27.4231 48.587 27.2205 49.0761 26.8598 49.4367C26.4992 49.7974 26.01 50 25.5 50C24.99 50 24.5008 49.7974 24.1402 49.4367C23.7795 49.0761 23.5769 48.587 23.5769 48.0769L23.5769 40.3846C23.5769 39.8746 23.7795 39.3854 24.1402 39.0248ZM7.25855 41.3173C7.25855 40.807 7.46127 40.3176 7.82211 39.9567L13.262 34.5192C13.6256 34.1738 14.1097 33.9841 14.6112 33.9905C15.1127 33.9969 15.5918 34.199 15.9464 34.5536C16.301 34.9082 16.5031 35.3873 16.5095 35.8888C16.5159 36.3903 16.3262 36.8744 15.9808 37.238L10.5433 42.6779C10.1824 43.0387 9.69301 43.2415 9.18269 43.2415C8.67238 43.2415 8.18296 43.0387 7.82211 42.6779C7.46127 42.317 7.25855 41.8276 7.25855 41.3173Z" fill="#5E94BF"/>
    <path d="M38.9615 25C38.9615 25.51 39.1641 25.9992 39.5248 26.3598C39.8854 26.7205 40.3746 26.9231 40.8846 26.9231L48.5769 26.9231C49.087 26.9231 49.5761 26.7205 49.9367 26.3598C50.2974 25.9992 50.5 25.51 50.5 25C50.5 24.49 50.2974 24.0008 49.9367 23.6402C49.5761 23.2795 49.087 23.0769 48.5769 23.0769L40.8846 23.0769C40.3746 23.0769 39.8854 23.2795 39.5248 23.6402C39.1641 24.0008 38.9615 24.49 38.9615 25Z" fill="#BDBDBD"/>
  </symbol>
  <symbol id="success" viewBox="0 0 101 100" fill="none">
    <path d="M72.4519 35.7404C72.8095 36.0976 73.0932 36.5218 73.2868 36.9887C73.4803 37.4556 73.5799 37.9561 73.5799 38.4615C73.5799 38.967 73.4803 39.4675 73.2868 39.9344C73.0932 40.4013 72.8095 40.8255 72.4519 41.1827L45.5289 68.1058C45.1717 68.4634 44.7475 68.747 44.2806 68.9406C43.8136 69.1342 43.3131 69.2338 42.8077 69.2338C42.3023 69.2338 41.8018 69.1342 41.3349 68.9406C40.8679 68.747 40.4438 68.4634 40.0866 68.1058L28.5481 56.5673C27.8264 55.8456 27.421 54.8668 27.421 53.8461C27.421 52.8255 27.8264 51.8467 28.5481 51.125C29.2698 50.4033 30.2486 49.9979 31.2692 49.9979C32.2899 49.9979 33.2687 50.4033 33.9904 51.125L42.8077 59.9471L67.0096 35.7404C67.3668 35.3828 67.791 35.0991 68.2579 34.9055C68.7248 34.712 69.2253 34.6124 69.7308 34.6124C70.2362 34.6124 70.7367 34.712 71.2036 34.9055C71.6705 35.0991 72.0947 35.3828 72.4519 35.7404ZM100.5 50C100.5 59.8891 97.5676 69.556 92.0735 77.7785C86.5794 86.0009 78.7705 92.4096 69.6342 96.194C60.4979 99.9783 50.4445 100.968 40.7455 99.0392C31.0464 97.11 22.1373 92.3479 15.1447 85.3553C8.15206 78.3627 3.39002 69.4536 1.46076 59.7545C-0.468502 50.0555 0.521664 40.0021 4.30605 30.8658C8.09043 21.7295 14.499 13.9206 22.7215 8.42652C30.944 2.93245 40.6109 0 50.5 0C63.7565 0.0139991 76.4661 5.28633 85.8399 14.6601C95.2137 24.0339 100.486 36.7435 100.5 50ZM92.8077 50C92.8077 41.6323 90.3264 33.4526 85.6776 26.4951C81.0287 19.5376 74.4212 14.115 66.6905 10.9128C58.9597 7.71062 50.4531 6.87279 42.2462 8.50524C34.0393 10.1377 26.5008 14.1671 20.584 20.0839C14.6671 26.0008 10.6377 33.5393 9.00526 41.7462C7.37281 49.9531 8.21064 58.4597 11.4128 66.1904C14.615 73.9212 20.0377 80.5287 26.9951 85.1775C33.9526 89.8264 42.1323 92.3077 50.5 92.3077C61.7168 92.2949 72.4705 87.8335 80.402 79.902C88.3335 71.9705 92.795 61.2168 92.8077 50Z" fill="#15EA1E"/>
  </symbol>
  <symbol id="error" viewBox="0 0 91 90" fill="none">
    <path d="M33.708 56.4583L57.2913 32.875M57.2913 56.4583L33.708 32.875M45.4997 86.3333C68.4163 86.3333 87.1663 67.5833 87.1663 44.6667C87.1663 21.75 68.4163 3 45.4997 3C22.583 3 3.83301 21.75 3.83301 44.6667C3.83301 67.5833 22.583 86.3333 45.4997 86.3333Z" stroke="#CF1616" stroke-width="6" stroke-linecap="round" stroke-linejoin="round"/>
  </symbol>
  <symbol id="card" viewBox="0 0 28 28" fill="none">
    <path d="M2.33301 9.92261H25.6663M6.99967 19.2559H9.33301M12.2497 19.2559H16.9163" stroke="#333333" stroke-width="1.5" stroke-miterlimit="10" stroke-linecap="round" stroke-linejoin="round"/>
    <path d="M7.51301 4.08911H20.4747C24.628 4.08911 25.6663 5.11578 25.6663 9.21078V18.7891C25.6663 22.8841 24.628 23.9108 20.4863 23.9108H7.51301C3.37134 23.9224 2.33301 22.8958 2.33301 18.8008V9.21078C2.33301 5.11578 3.37134 4.08911 7.51301 4.08911Z" stroke="#333333" stroke-width="1.5" stroke-linecap="round" stroke-linejoin="round"/>
  </symbol>
</svg>
